<svg id="Layer_1" data-name="Layer 1" xmlns="http://www.w3.org/2000/svg" xmlns:xlink="http://www.w3.org/1999/xlink" viewBox="0 0 1890 1080"><defs><style>.cls-1{fill:none;}.cls-2{clip-path:url(#clip-path);}.cls-3{fill:url(#linear-gradient);}.cls-4{fill:url(#linear-gradient-2);}.cls-5{fill:url(#linear-gradient-3);}.cls-6{fill:url(#linear-gradient-4);}.cls-7{fill:url(#linear-gradient-5);}</style><clipPath id="clip-path"><rect class="cls-1" x="0.48" y="0.48" width="1889.17" height="1079.52"/></clipPath><linearGradient id="linear-gradient" x1="1365.19" y1="260.73" x2="834.7" y2="681.04" gradientUnits="userSpaceOnUse"><stop offset="0" stop-color="#fafafa"/><stop offset="0.53" stop-color="#f4f4f4"/><stop offset="1" stop-color="#e9e9e9"/></linearGradient><linearGradient id="linear-gradient-2" x1="33.74" y1="555.01" x2="796.83" y2="595.82" gradientUnits="userSpaceOnUse"><stop offset="0" stop-color="#2c2c2c"/><stop offset="0.71" stop-color="#141414"/><stop offset="1" stop-color="#090909"/></linearGradient><linearGradient id="linear-gradient-3" x1="-641.91" y1="809.77" x2="-596.91" y2="621.62" gradientTransform="translate(392.16 110.41) rotate(-78.26)" xlink:href="#linear-gradient-2"/><linearGradient id="linear-gradient-4" x1="-157.08" y1="348.97" x2="-75.27" y2="520.78" gradientTransform="translate(392.16 110.41) rotate(-78.26)" gradientUnits="userSpaceOnUse"><stop offset="0" stop-color="#ededed"/><stop offset="0.08" stop-color="#e4e4e4"/><stop offset="0.7" stop-color="#a7a7a7"/><stop offset="1" stop-color="#8f8f8f"/></linearGradient><linearGradient id="linear-gradient-5" x1="-430.75" y1="361.35" x2="-486.2" y2="716.63" gradientTransform="translate(392.16 110.41) rotate(-78.26)" gradientUnits="userSpaceOnUse"><stop offset="0" stop-color="#fd2411"/><stop offset="0.31" stop-color="#de170c"/><stop offset="0.76" stop-color="#b70606"/><stop offset="1" stop-color="#a80004"/></linearGradient></defs><title>Untitled-2</title><g class="cls-2"><rect class="cls-3" x="0.34" y="-66.99" width="2024.11" height="1214.46"/><path class="cls-4" d="M780-78.28H-207.57V1215.3H637.14S1212.51,635.84,780-78.28Z"/><path class="cls-5" d="M539.81,1284,666,1460.66s244.17-199.94,348.34-560.56S986.66,209.18,898.5,90.59C898.5,90.59,1069,838.34,539.81,1284Z"/><path class="cls-6" d="M759,771.84s83.51-170.65-3.67-474.94C680,34,597.77-30.38,597.77-30.38l129.84-92.09S941.82,143.46,894.52,461.59,759,771.84,759,771.84Z"/><path class="cls-7" d="M484.61,1102.31s275.83-196.49,352-562.93S713.35-119.17,713.35-119.17l25.39-16.65s322.88,270.75,222.39,754.34-413.29,717.31-413.29,717.31Z"/></g></svg>