<svg id="Layer_1" data-name="Layer 1" xmlns="http://www.w3.org/2000/svg" xmlns:xlink="http://www.w3.org/1999/xlink" viewBox="0 0 1890 1080"><defs><style>.cls-1{fill:url(#linear-gradient);}.cls-2{clip-path:url(#clip-path);}.cls-3{fill:url(#linear-gradient-3);}.cls-4{fill:url(#linear-gradient-4);}.cls-5{fill:url(#linear-gradient-5);}.cls-6{fill:url(#linear-gradient-6);}.cls-7{fill:#0a1e29;}.cls-8{fill:url(#linear-gradient-7);}</style><linearGradient id="linear-gradient" x1="0.14" y1="540.16" x2="1889.57816" y2="540.16" gradientUnits="userSpaceOnUse"><stop offset="0" stop-color="#e8e8e8"/><stop offset="1" stop-color="#fff"/></linearGradient><clipPath id="clip-path"><rect class="cls-1" x="0.14" y="0.32" width="1889.43816" height="1079.68"/></clipPath><linearGradient id="linear-gradient-3" x1="1203.97055" y1="550.00371" x2="-466.50264" y2="550.00371" gradientUnits="userSpaceOnUse"><stop offset="0" stop-color="#a1a1a1"/><stop offset="0.52303" stop-color="#d4d4d4"/><stop offset="1" stop-color="#fff"/></linearGradient><linearGradient id="linear-gradient-4" x1="727.76658" y1="330.54336" x2="942.58223" y2="907.85988" gradientUnits="userSpaceOnUse"><stop offset="0" stop-color="#20a4ff"/><stop offset="0.17473" stop-color="#1e9efd"/><stop offset="0.41896" stop-color="#188bf6"/><stop offset="0.70415" stop-color="#0d6eec"/><stop offset="1" stop-color="#0047de"/></linearGradient><linearGradient id="linear-gradient-5" x1="1154.34207" y1="-1561.27818" x2="2853.73126" y2="1597.58995" gradientTransform="matrix(1, 0, -0.4208, 1, -594.5843, 0)" xlink:href="#linear-gradient-4"/><linearGradient id="linear-gradient-6" x1="1393.76624" y1="241.51805" x2="1906.83309" y2="1345.20642" gradientUnits="userSpaceOnUse"><stop offset="0" stop-color="#0a1429"/><stop offset="1" stop-color="#212736"/></linearGradient><linearGradient id="linear-gradient-7" x1="310.29104" y1="514.75421" x2="79.60929" y2="689.75412" xlink:href="#linear-gradient-4"/></defs><title>model3</title><rect class="cls-1" x="0.14" y="0.32" width="1889.43816" height="1079.68"/><g class="cls-2"><polygon class="cls-3" points="926.294 751.352 1095.744 348.655 -94.45 348.655 -263.901 751.352 926.294 751.352"/><polygon class="cls-4" points="867.933 348.655 698.482 751.352 750.921 751.352 920.371 348.655 867.933 348.655"/><polygon class="cls-5" points="1784.495 1162.999 631.09 1162.999 1144.466 -57.025 2297.872 -57.025 1784.495 1162.999"/><polygon class="cls-6" points="1876.966 1162.999 686.772 1162.999 1200.148 -57.025 2390.343 -57.025 1876.966 1162.999"/><rect class="cls-7" x="199.27295" y="628.32269" width="463.7272" height="6.25344"/><rect class="cls-8" x="107.84812" y="624.19668" width="97.23322" height="14.50665"/></g></svg>